<svg xmlns="http://www.w3.org/2000/svg" viewBox="0 0 256 256"><path d="M.5.5v120.21h120.207V.5H.5zm134.787.002V120.71H255.5V.5H135.287zM48.783 23.69h23.8v25.08H97.5v23.742H72.584v25.013h-23.8V72.512H23.726V48.77h25.056V23.69zm146.594 8.5c26.256 0 47.52 28.406 47.52 28.406s-21.267 28.457-47.52 28.457c-26.23 0-47.514-28.457-47.514-28.457s21.284-28.407 47.514-28.407zm0 15.326c-7.21 0-13.12 5.882-13.12 13.074 0 7.303 5.907 13.144 13.12 13.144 7.27 0 13.135-5.84 13.135-13.144 0-7.192-5.864-13.074-13.135-13.074zM.492 135.29V255.5h120.21V135.29H.49zm134.797 0V255.5h120.183V135.29H135.29zm86.24 25.692l16.825 16.77-35.347 35.32-16.775 16.787-16.795-16.79-16.997-17.023 16.79-16.788 17 17.032 35.297-35.313zm-197.79 22.53h73.733v23.756H23.74v-23.756z"/></svg>
