<svg xmlns="http://www.w3.org/2000/svg" viewBox="0 0 16 16" clip-rule="evenodd"><path d="M8 0a8 8 0 0 0-.566.02 8 8 0 0 0-.793.097 8 8 0 0 0-.78.174 8 8 0 0 0-.76.26 8 8 0 0 0-.73.33 8 8 0 0 0-.69.4 8 8 0 0 0-.65.47 8 8 0 0 0-.6.53 8 8 0 0 0-.54.59 8 8 0 0 0-.48.637 8 8 0 0 0-.42.68 8 8 0 0 0-.35.72 8 8 0 0 0-.27.754 8 8 0 0 0-.2.77 8 8 0 0 0-.12.79A8 8 0 0 0 0 8a8 8 0 0 0 .02.566 8 8 0 0 0 .097.793 8 8 0 0 0 .173.78 8 8 0 0 0 .25.75 8 8 0 0 0 .328.73 8 8 0 0 0 .398.69 8 8 0 0 0 .464.65 8 8 0 0 0 .53.6 8 8 0 0 0 .584.54 8 8 0 0 0 .636.48 8 8 0 0 0 .682.417 8 8 0 0 0 .72.35 8 8 0 0 0 .753.27 8 8 0 0 0 .773.196 8 8 0 0 0 .79.12A8 8 0 0 0 8 16a8 8 0 0 0 .566-.02 8 8 0 0 0 .793-.097 8 8 0 0 0 .78-.173 8 8 0 0 0 .75-.25 8 8 0 0 0 .73-.328 8 8 0 0 0 .69-.398 8 8 0 0 0 .65-.464 8 8 0 0 0 .6-.53 8 8 0 0 0 .54-.584 8 8 0 0 0 .48-.636 8 8 0 0 0 .417-.682 8 8 0 0 0 .35-.72 8 8 0 0 0 .27-.753 8 8 0 0 0 .2-.773 8 8 0 0 0 .12-.79A8 8 0 0 0 16 8a8 8 0 0 0-.02-.566 8 8 0 0 0-.097-.793 8 8 0 0 0-.174-.78 8 8 0 0 0-.26-.75 8 8 0 0 0-.33-.73 8 8 0 0 0-.4-.69 8 8 0 0 0-.47-.65 8 8 0 0 0-.53-.6 8 8 0 0 0-.59-.54 8 8 0 0 0-.636-.48 8 8 0 0 0-.68-.417 8 8 0 0 0-.72-.35 8 8 0 0 0-.753-.27 8 8 0 0 0-.77-.2A8 8 0 0 0 8.8.04 8 8 0 0 0 8 0zM4.52 4.762c1.056 0 1.9.4 2.527.96.392.35.705.758.988 1.174.283-.416.597-.823.988-1.173.628-.562 1.47-.96 2.528-.96 1.83 0 3.34 1.44 3.34 3.23 0 1.788-1.51 3.23-3.33 3.23-1.06.047-1.91-.365-2.52-.952-.39-.37-.7-.8-.99-1.25-.28.45-.6.88-.99 1.25-.61.59-1.46 1-2.52.96C2.71 11.23 1.2 9.79 1.2 8s1.51-3.23 3.333-3.23zm0 1.138c-1.23 0-2.194.94-2.194 2.09s.963 2.092 2.194 2.092h.015l.016.002c.78.04 1.26-.2 1.71-.637.39-.372.74-.91 1.11-1.496-.34-.53-.68-1.02-1.08-1.37-.47-.42-.98-.67-1.77-.67zm7.03.002c-.788 0-1.3.253-1.765.67-.394.353-.74.843-1.078 1.38.363.584.712 1.123 1.104 1.495.46.437.93.678 1.71.637l.02-.002h.02c1.23 0 2.2-.94 2.2-2.09s-.96-2.09-2.19-2.09zm-.495.99h.724v.72h.72v.726h-.73v.724h-.73v-.724h-.73v-.725h.722V6.89zm-7.483.706h2.162v.756H3.572v-.756z"/></svg>
