<svg viewBox="0 0 1000 1000" xmlns="http://www.w3.org/2000/svg" preserveAspectRatio="xMinYMin meet" height="1000" width="1000" clip-rule="evenodd"><path d="M272.854 481.734v34h102v-34zm390-34v34h-34v34h34v34h34v-34h34v-34h-34v-34zm24-58.127c64.786 0 115.544 49.536 115.544 110 0 60.465-50.758 110-115.544 110h-.79l-.787.04c-41.064 2.163-65.842-10.537-89.947-33.51-20.583-19.618-39.012-47.93-58.1-78.737 17.864-28.22 35.946-54.007 56.682-72.57 24.537-21.965 51.41-35.223 92.942-35.223zm-369.977-.125c41.532 0 68.38 13.383 92.918 35.348 20.736 18.563 38.818 44.35 56.684 72.57-19.09 30.807-37.52 59.12-58.106 78.737-24.105 22.973-48.883 35.673-89.947 33.51l-.788-.04h-.79c-64.787 0-115.52-49.66-115.52-110.125 0-60.464 50.756-110 115.543-110zm-.023-59.875c-95.978 0-175.545 75.825-175.545 170 0 94.173 79.56 169.996 175.533 170 55.898 2.496 100.542-19.173 132.927-50.04 20.62-19.65 37.027-42.503 52.08-65.78 15.056 23.277 31.463 46.132 52.08 65.783 32.385 30.864 77.027 52.53 132.92 50.037h.01c95.974-.004 175.537-75.827 175.537-170 0-94.175-79.57-170-175.546-170-55.62 0-99.94 20.96-132.96 50.52-20.62 18.456-37.14 39.87-52.04 61.793-14.9-21.924-31.42-43.337-52.04-61.793-33.02-29.56-77.34-50.52-132.96-50.52zM500 0c132.608 0 259.785 52.68 353.553 146.448C947.323 240.215 1000 367.392 1000 500s-52.68 259.785-146.448 353.553C759.785 947.323 632.608 1000 500 1000s-259.785-52.68-353.553-146.448C52.677 759.785 0 632.608 0 500s52.68-259.785 146.448-353.553C240.215 52.677 367.392 0 500 0z"/></svg>
