<svg xmlns="http://www.w3.org/2000/svg" viewBox="0 0 16 16" clip-rule="evenodd"><path d="M3.92 4.25C1.82 4.25.06 5.92.06 8c0 2.07 1.75 3.74 3.86 3.74 1.24.06 2.22-.42 2.93-1.1.46-.43.82-.94 1.15-1.45.33.5.7 1 1.15 1.44.7.68 1.7 1.16 2.93 1.1 2.1 0 3.86-1.67 3.86-3.74 0-2.08-1.75-3.75-3.86-3.75-1.23 0-2.2.46-2.93 1.12-.46.4-.82.87-1.15 1.36-.33-.5-.7-.96-1.15-1.36-.72-.66-1.7-1.12-2.93-1.12zm0 1.32c.92 0 1.5.3 2.05.78.46.4.86.98 1.25 1.6-.42.68-.83 1.3-1.28 1.74-.53.5-1.08.77-1.98.72h-.04c-1.42 0-2.54-1.1-2.54-2.42 0-1.34 1.12-2.43 2.55-2.43zm8.16 0c1.42 0 2.54 1.1 2.54 2.43s-1.12 2.42-2.54 2.42h-.04c-.9.05-1.45-.23-1.98-.73-.45-.45-.86-1.07-1.28-1.75.4-.62.8-1.2 1.25-1.6.54-.48 1.13-.78 2.05-.78zm-.58 1.15v.84h-.84v.84h.84v.84h.84V8.4h.84v-.84h-.84v-.84h-.84zm-8.68.82v.88h2.5v-.88h-2.5z"/></svg>
